<svg width="90" height="25" viewBox="0 0 120 41" fill="none" xmlns="http://www.w3.org/2000/svg">
<path d="M0 8.35498L7.71585 37.1012C8.19475 38.7447 9.3679 40.3174 11.2215 40.3174H11.8985L14.7461 28.114L10.1638 8.35498H0Z" fill="#4E5AEC"/>
<path d="M31.3905 22.2535L26.7324 40.3106H32.6119C33.2403 40.3105 33.8508 40.1014 34.3473 39.7162C34.8438 39.3311 35.1981 38.7917 35.3544 38.1831L40.283 18.9495L31.3905 22.2535Z" fill="#4E5AEC"/>
<path d="M84.2818 12.7788L77.0811 40.3106H83.4257C85.2207 40.3106 85.2552 39.6559 85.6238 38.2709L93.3689 8.35498L84.2818 12.7788Z" fill="#4E5AEC"/>
<path d="M26.0123 0C24.6966 0.010119 23.4227 0.462934 22.3957 1.28547C21.3688 2.10801 20.6488 3.25235 20.3516 4.53408L20.2086 5.15252L14.7822 28.207L14.7512 28.114L11.8984 40.3105H18.2603C20.2138 40.3105 21.9588 39.556 22.5514 37.3975L29.5093 9.91743L29.4904 9.9536L20.1277 12.0587L40.1227 0H26.0123Z" fill="#18AEF2"/>
<path d="M31.2544 22.8118L40.4431 17.4715C40.4431 17.4715 41.8626 12.6618 41.9057 12.636H33.7264L31.2544 22.8118Z" fill="#4E5AEC"/>
<path d="M51.7456 34.0333C50.712 34.0333 49.9845 33.8128 49.563 33.3718C49.1874 32.9791 49.0806 32.3647 49.2425 31.5286C49.2632 31.4218 49.6026 29.8576 49.6026 29.8576L51.3253 21.73L47.8317 22.6672L60.7379 15.1856C60.7379 15.1856 61.8163 11.6937 61.8594 11.6679L53.2805 15.6765L54.2848 11.7626L55.1685 8.36035H46.7274L41.0581 31.8025C40.2864 34.777 40.5367 37.0538 41.8092 38.6329C43.0817 40.212 45.3424 41.001 48.5914 40.9998C49.5881 40.9936 50.5834 40.9252 51.5716 40.7948C52.6767 40.6523 53.7676 40.4161 54.8326 40.0885L56.5725 33.1686C55.6922 33.4882 54.783 33.7218 53.8576 33.8663C53.1584 33.9719 52.4527 34.0295 51.7456 34.0385" fill="#4E5AEC"/>
<path d="M70.714 34.0331C69.6804 34.0331 68.9529 33.8126 68.5314 33.3716C68.1558 32.9789 68.049 32.3645 68.211 31.5284C68.2316 31.4216 68.571 29.8574 68.571 29.8574L69.5719 24.8616L65.3427 26.0985L74.764 20.6462L79.0035 18.1794C79.0035 18.1794 80.0819 14.6858 80.125 14.66L71.5409 18.6652L73.2636 11.7573L74.1473 8.35498H65.7251L60.0283 31.8023C59.2542 34.7768 59.504 37.0536 60.7776 38.6327C62.0513 40.2118 64.312 41.0008 67.5598 40.9996C68.5565 40.9935 69.5518 40.925 70.54 40.7946C71.6456 40.652 72.7371 40.4157 73.8028 40.0883L75.5409 33.1684C74.6612 33.488 73.7525 33.7216 72.8277 33.8661C72.1279 33.9716 71.4217 34.0292 70.714 34.0383" fill="#4E5AEC"/>
<path d="M101.576 21.8178L102.346 21.3716C102.08 21.5077 101.829 21.6576 101.576 21.8178Z" fill="#4E5AEC"/>
<path d="M118.754 21.5334C118.347 20.1923 117.627 18.9672 116.654 17.9589C115.627 16.9221 114.381 16.1291 113.007 15.6384C111.549 15.0895 109.879 14.815 107.999 14.815C105.764 14.8029 103.544 15.18 101.438 15.9295C99.4363 16.6402 97.5717 17.689 95.9251 19.0304C94.3254 20.3353 92.9819 21.9258 91.9629 23.7212C90.9288 25.5493 90.287 27.5728 90.0783 29.6627C89.889 31.2048 90.0162 32.7693 90.4521 34.2605C90.8521 35.6104 91.5712 36.8442 92.5486 37.8575C93.5802 38.8985 94.8341 39.6924 96.2162 40.1796C97.6874 40.7263 99.3796 40.9996 101.293 40.9996C103.524 41.0139 105.739 40.636 107.839 39.8833C109.83 39.174 111.682 38.1249 113.314 36.7825C114.906 35.4684 116.241 33.871 117.252 32.071C118.288 30.2344 118.933 28.2033 119.147 26.1054C119.336 24.5705 119.207 23.0132 118.769 21.53L118.754 21.5334ZM111.974 26.7238C111.851 27.9342 111.506 29.1116 110.955 30.1967C110.432 31.2399 109.733 32.1851 108.888 32.9909C108.065 33.7752 107.102 34.3981 106.049 34.8273C104.973 35.2627 103.822 35.4828 102.661 35.475C100.749 35.475 99.313 34.8824 98.354 33.6972C97.3951 32.512 97.0167 30.9616 97.2188 29.046C97.3386 27.8258 97.685 26.6386 98.2404 25.5455C98.3024 25.4232 98.3678 25.3026 98.435 25.1837L93.0224 26.7686L101.572 21.8245C101.82 21.6643 102.077 21.5144 102.342 21.3784L102.437 21.3232C102.675 21.2084 102.918 21.0981 103.167 20.9925C104.235 20.5617 105.375 20.3412 106.526 20.343C108.439 20.343 109.874 20.927 110.833 22.095C111.792 23.263 112.171 24.8059 111.97 26.7238" fill="#4E5AEC"/>
<path d="M102.441 21.3164L102.346 21.3718L102.441 21.3233V21.3164Z" fill="#4E5AEC"/>
</svg>
