<?xml version="1.0" standalone="no"?>
<!DOCTYPE svg PUBLIC "-//W3C//DTD SVG 20010904//EN"
 "http://www.w3.org/TR/2001/REC-SVG-20010904/DTD/svg10.dtd">
<svg version="1.0" xmlns="http://www.w3.org/2000/svg"
 width="256.000000pt" height="256.000000pt" viewBox="0 0 256.000000 256.000000"
 preserveAspectRatio="xMidYMid meet">

<g transform="translate(0.000000,256.000000) scale(0.100000,-0.100000)"
fill="#000000" stroke="none">
<path d="M424 1733 c9 -34 270 -1019 297 -1118 10 -38 29 -107 40 -152 12 -46
34 -102 49 -126 30 -48 85 -80 128 -75 25 3 28 9 49 98 55 232 103 452 103
476 0 14 -14 85 -30 157 -17 73 -63 274 -103 447 l-73 315 -233 3 -233 2 6
-27z"/>
</g>
</svg>
